<svg width="35" height="27" viewBox="0 0 35 27" fill="none" xmlns="http://www.w3.org/2000/svg">
<g id="&#240;&#159;&#166;&#134; icon &#34;post&#34;">
<path id="Vector" d="M34.9864 9.41943V24.2214C34.9864 25.7078 33.7816 26.9126 32.2952 26.9126H2.69126C1.20488 26.9126 0 25.7078 0 24.2214V9.41943C0 8.67637 0.602574 8.07379 1.34563 8.07379C1.53187 8.03289 1.72456 8.03289 1.9108 8.07379L17.4932 18.8389L33.1026 8.07379C33.2802 8.03665 33.4632 8.03665 33.6408 8.07379C34.3839 8.07379 34.9864 8.67637 34.9864 9.41943ZM0.672816 2.47596L0.888117 2.69126L17.4932 13.4563L34.1521 2.69126H34.3136C34.797 2.42725 35.065 1.89061 34.9864 1.34563C34.9864 0.602574 34.3839 0 33.6408 0H1.34563C0.602574 0 0 0.602574 0 1.34563C0.00699729 1.81526 0.263206 2.24586 0.672816 2.47596Z" fill="black"/>
</g>
</svg>
